<?xml version="1.0" standalone="no"?>
<!DOCTYPE svg PUBLIC "-//W3C//DTD SVG 20010904//EN"
 "http://www.w3.org/TR/2001/REC-SVG-20010904/DTD/svg10.dtd">
<svg version="1.0" xmlns="http://www.w3.org/2000/svg"
 width="800.000000pt" height="800.000000pt" viewBox="0 0 800.000000 800.000000"
 preserveAspectRatio="xMidYMid meet">
<metadata>
Created by potrace 1.14, written by Peter Selinger 2001-2017
</metadata>
<g transform="translate(0.000000,800.000000) scale(0.100000,-0.100000)"
fill="#000000" stroke="none">
<path d="M5584 7819 c-17 -5 -37 -15 -43 -23 -9 -11 -63 -176 -76 -235 -2 -9
-38 -126 -78 -261 -41 -135 -124 -411 -185 -615 -61 -203 -147 -495 -193 -648
-46 -152 -86 -274 -90 -270 -8 9 -656 1822 -684 1913 -26 86 -32 98 -62 117
-26 17 -69 18 -803 15 -1138 -4 -1125 -4 -1158 -28 -31 -24 -32 -26 -137 -404
-41 -151 -82 -297 -90 -325 -17 -58 -130 -465 -150 -540 -26 -100 -177 -641
-186 -670 -5 -16 -57 -203 -115 -415 -145 -525 -144 -523 -148 -540 -2 -8 -21
-73 -41 -145 -20 -71 -38 -137 -40 -145 -2 -8 -15 -55 -30 -105 -14 -49 -35
-124 -46 -165 -11 -41 -24 -89 -30 -106 -5 -17 -11 -40 -13 -50 -2 -10 -48
-174 -101 -364 -53 -190 -98 -352 -100 -360 -3 -13 -28 -105 -100 -360 -14
-47 -54 -193 -90 -325 -36 -132 -72 -262 -80 -290 -8 -27 -116 -417 -240 -865
-124 -448 -234 -844 -245 -880 -11 -36 -42 -149 -70 -253 -44 -162 -49 -192
-41 -225 15 -53 37 -80 75 -91 43 -11 2158 -12 2200 0 17 5 39 18 48 30 14 17
54 125 64 174 1 6 95 321 208 700 114 380 237 789 273 910 36 121 69 226 72
233 4 7 67 -155 140 -360 74 -205 162 -452 197 -548 165 -459 261 -731 321
-905 39 -113 74 -199 88 -213 12 -13 39 -27 60 -32 32 -7 737 -6 1617 4 287 3
296 5 325 74 8 19 37 115 63 211 27 97 72 259 100 361 29 102 53 192 55 200 3
15 164 595 191 685 17 60 184 664 189 685 2 8 40 148 85 310 45 162 106 384
136 493 30 109 78 284 108 390 55 194 83 295 116 422 10 39 25 93 34 120 8 28
56 196 105 375 49 179 108 393 131 475 38 136 87 311 126 455 147 538 218 797
234 850 17 55 66 233 291 1050 36 129 39 140 44 165 3 11 18 65 34 120 26 92
28 103 15 144 -15 52 -29 68 -70 80 -39 11 -2169 11 -2210 0z"/>
</g>
</svg>
